<svg xmlns="http://www.w3.org/2000/svg" version="1.1" xmlns:xlink="http://www.w3.org/1999/xlink" xmlns:svgjs="http://svgjs.dev/svgjs" width="1000" height="1125" viewBox="0 0 1000 1125"><g transform="matrix(1,0,0,1,0,0)"><svg viewBox="0 0 320 360" data-background-color="#0c0c0c" preserveAspectRatio="xMidYMid meet" height="1125" width="1000" xmlns="http://www.w3.org/2000/svg" xmlns:xlink="http://www.w3.org/1999/xlink"><g id="tight-bounds" transform="matrix(1,0,0,1,0,0)"><svg viewBox="0 0 320 360" height="360" width="320"><g><svg></svg></g><g><svg viewBox="0 0 320 360" height="360" width="320"><g><path transform="translate(-25.80645,-5.80645) scale(10.32258,10.32258)" d="M18 33.5c8.55 0 15.5-6.95 15.5-15.5 0-8.55-6.95-15.5-15.5-15.5-8.55 0-15.5 6.95-15.5 15.5 0 8.55 6.95 15.5 15.5 15.5zM18.5 32.47v-1c7.04-0.26 12.71-5.93 12.97-12.97h1c-0.26 7.6-6.37 13.71-13.97 13.97zM18.5 3.53c7.6 0.26 13.71 6.37 13.97 13.97h-1c-0.26-7.04-5.93-12.71-12.97-12.97zM30.5 18c0 6.89-5.61 12.5-12.5 12.5-6.89 0-12.5-5.61-12.5-12.5 0-6.89 5.61-12.5 12.5-12.5 6.89 0 12.5 5.61 12.5 12.5zM17.5 3.53v1c-7.04 0.26-12.71 5.93-12.97 12.97h-1c0.26-7.6 6.37-13.71 13.97-13.97zM4.53 18.5c0.26 7.04 5.93 12.71 12.97 12.97v1c-7.6-0.26-13.71-6.37-13.97-13.97z" fill="#000000" fill-rule="nonzero" stroke="none" stroke-width="1" stroke-linecap="butt" stroke-linejoin="miter" stroke-miterlimit="10" stroke-dasharray="" stroke-dashoffset="0" font-family="none" font-weight="none" font-size="none" text-anchor="none" style="mix-blend-mode: normal" data-fill-palette-color="tertiary"></path></g><g transform="matrix(1,0,0,1,70,90)"><svg viewBox="0 0 180 180" height="180" width="180"><g><svg viewBox="0 0 180 180" height="180" width="180"><g><svg viewBox="0 0 180 180" height="180" width="180"><g id="textblocktransform"><svg viewBox="0 0 180 180" height="180" width="180" id="textblock"><g><svg viewBox="0 0 180 180" height="180" width="180"><g transform="matrix(1,0,0,1,36.966991411008934,36.966991411008934)"><svg viewBox="0 0 106.06601717798213 106.06601717798213" height="106.06601717798213" width="106.06601717798213"><g><circle r="53" cx="53.033008588991066" cy="53.033008588991066" fill="#000000" data-fill-palette-color="accent"></circle><svg xmlns="http://www.w3.org/2000/svg" data-name="Layer 1" viewBox="2.430551295781235 20.791724898981606 95.13905147020833 58.4682751010184" x="15.90990257669732" y="15.90990257669732" height="74.24621202458749" width="74.24621202458749" class="icon-kg-0" data-fill-palette-color="quaternary" id="kg-0"><path d="M62.78 23l32 55.42 1.3-2.26h-64l1.3 2.26L65.37 23a1.5 1.5 0 0 0-2.59-1.51L30.79 77a1.51 1.51 0 0 0 1.3 2.26h64A1.51 1.51 0 0 0 97.37 77l-32-55.42A1.5 1.5 0 0 0 62.78 23Z" fill="#ffffff" data-fill-palette-color="quaternary"></path><path d="M34.63 23l32 55.42 1.3-2.26h-64l1.3 2.26L37.22 23a1.5 1.5 0 0 0-2.59-1.51L2.63 77a1.51 1.51 0 0 0 1.3 2.26h64A1.51 1.51 0 0 0 69.21 77l-32-55.42A1.5 1.5 0 0 0 34.63 23Z" fill="#ffffff" data-fill-palette-color="quaternary"></path></svg></g></svg></g><g><path d="M87.892 18.013l-3.679 0.059-0.288-17.946 7.767-0.125c1.615-0.026 2.85 0.469 3.703 1.486 0.854 1.01 1.295 2.373 1.323 4.088v0c0.028 1.715-0.369 3.094-1.191 4.138-0.821 1.044-2.039 1.579-3.654 1.604v0l-4.087 0.066zM87.655 3.277l0.079 4.885 3.629-0.058c0.499-0.008 0.885-0.141 1.16-0.398 0.282-0.264 0.418-0.695 0.408-1.293v0l-0.024-1.545c-0.01-0.598-0.159-1.025-0.45-1.279-0.283-0.255-0.674-0.378-1.172-0.37v0z" fill="#000000" data-fill-palette-color="primary"></path><path d="M87.675 180l-3.679-0.059 0.288-17.946 7.767 0.124c1.615 0.026 2.833 0.561 3.654 1.605 0.821 1.037 1.218 2.413 1.191 4.128v0c-0.028 1.715-0.468 3.081-1.323 4.097-0.854 1.017-2.089 1.512-3.704 1.487v0l-4.087-0.066zM87.912 165.264l-0.079 4.886 3.63 0.058c0.499 0.008 0.889-0.112 1.172-0.36 0.29-0.255 0.44-0.681 0.449-1.28v0l0.025-1.545c0.01-0.598-0.126-1.029-0.408-1.293-0.275-0.264-0.662-0.4-1.16-0.408v0z" fill="#000000" data-fill-palette-color="primary"></path><path d="M7.174 92.257c0-1.136 0.921-2.057 2.056-2.057 1.136 0 2.057 0.921 2.057 2.057 0 1.136-0.921 2.057-2.057 2.057-1.136 0-2.057-0.921-2.056-2.057z" fill="#000000" data-fill-palette-color="primary"></path><path d="M168.713 92.257c0-1.136 0.921-2.057 2.057-2.057 1.136 0 2.057 0.921 2.056 2.057 0 1.136-0.921 2.057-2.056 2.057-1.136 0-2.057-0.921-2.057-2.057z" fill="#000000" data-fill-palette-color="primary"></path></g></svg></g></svg></g></svg></g></svg></g></svg></g></svg></g><defs></defs></svg><rect width="320" height="360" fill="none" stroke="none" visibility="hidden"></rect></g></svg></g></svg>